<svg width="438" height="77" viewBox="0 0 438 77" fill="none" xmlns="http://www.w3.org/2000/svg">
<path d="M144.455 53.5527C144.76 53.5527 144.913 53.6598 144.913 53.874C144.913 54.1475 144.701 54.5371 144.277 55.043L144.147 55.1934C143.774 55.6491 143.3 55.9613 142.726 56.1299C142.525 56.1891 142.361 56.2188 142.233 56.2188C142.069 56.2188 141.942 56.2142 141.851 56.2051C141.759 56.196 141.627 56.1846 141.454 56.1709L140.873 56.123C140.381 56.0911 139.889 56.0615 139.396 56.0342C138.49 56.9229 137.719 57.8913 137.086 58.9395C136.854 59.3268 136.737 59.5661 136.737 59.6572C136.737 60.0947 136.883 60.4046 137.175 60.5869C137.471 60.7692 137.868 60.8604 138.364 60.8604C138.866 60.8604 139.292 60.8353 139.643 60.7852C139.998 60.7305 140.331 60.6644 140.641 60.5869C140.955 60.5049 141.244 60.416 141.509 60.3203C141.778 60.2201 142.012 60.1266 142.213 60.04C142.418 59.9535 142.587 59.876 142.719 59.8076L142.985 59.6709C143.127 59.6344 143.259 59.6504 143.382 59.7188C143.601 59.8509 143.71 60.0013 143.71 60.1699C143.71 60.3385 143.612 60.5072 143.416 60.6758C141.835 62.0384 140.037 62.8656 138.022 63.1572C137.366 63.2529 136.744 63.3008 136.156 63.3008C135.568 63.3008 135.108 63.2689 134.775 63.2051C134.447 63.1458 134.172 63.0638 133.948 62.959C133.729 62.8542 133.556 62.7334 133.429 62.5967C133.301 62.4554 133.205 62.3073 133.142 62.1523C133.046 61.9199 132.998 61.6488 132.998 61.3389C132.998 61.0244 133.041 60.7669 133.128 60.5664C133.219 60.3659 133.331 60.1722 133.463 59.9854C133.595 59.7985 133.739 59.6139 133.894 59.4316C134.053 59.2493 134.181 59.0898 134.276 58.9531C134.377 58.8164 134.488 58.6797 134.611 58.543C135.313 57.8138 135.785 57.3307 136.026 57.0938L137.202 55.9727C136.482 55.9727 135.981 56.0114 135.698 56.0889C135.42 56.1618 135.181 56.2301 134.98 56.2939C134.785 56.3577 134.584 56.4261 134.379 56.499C134.174 56.5719 133.987 56.6426 133.818 56.7109C133.431 56.8659 133.203 56.973 133.135 57.0322C133.066 57.0869 132.982 57.1143 132.882 57.1143C132.782 57.1143 132.688 57.0983 132.602 57.0664C132.52 57.0299 132.444 56.9798 132.376 56.916C132.226 56.7839 132.15 56.638 132.15 56.4785C132.15 56.3145 132.203 56.1549 132.308 56C132.417 55.8451 132.583 55.6696 132.807 55.4736C133.03 55.2731 133.26 55.0794 133.497 54.8926L134.146 54.3799C134.347 54.2204 134.481 54.0905 134.55 53.9902C134.75 53.6986 135.231 53.5026 135.992 53.4023C136.211 53.3704 136.434 53.3545 136.662 53.3545C136.895 53.3545 137.209 53.3727 137.605 53.4092C138.007 53.4456 138.485 53.4844 139.041 53.5254C140.527 53.6439 141.618 53.7031 142.315 53.7031C143.017 53.7031 143.418 53.694 143.519 53.6758L143.826 53.6279C144.122 53.5778 144.332 53.5527 144.455 53.5527ZM158.359 52.0283C158.209 52.0921 158.09 52.1491 158.004 52.1992C157.922 52.2448 157.842 52.2676 157.765 52.2676C157.692 52.2676 157.623 52.2562 157.56 52.2334C157.496 52.2061 157.439 52.1719 157.389 52.1309C157.279 52.0397 157.225 51.9349 157.225 51.8164C157.225 51.6979 157.261 51.6022 157.334 51.5293C157.407 51.4518 157.5 51.3721 157.614 51.29C157.728 51.208 157.863 51.1237 158.018 51.0371C158.177 50.946 158.353 50.8571 158.544 50.7705C158.735 50.6794 158.934 50.5996 159.139 50.5312C159.599 50.3672 159.977 50.2852 160.273 50.2852C160.574 50.2852 160.829 50.3444 161.039 50.4629C161.249 50.5814 161.442 50.7135 161.62 50.8594C161.798 51.0007 161.966 51.1305 162.126 51.249C162.29 51.3675 162.447 51.4268 162.598 51.4268C162.935 51.4268 163.268 51.3561 163.596 51.2148C163.682 51.1829 163.773 51.167 163.869 51.167C163.969 51.167 164.072 51.2103 164.177 51.2969C164.282 51.3789 164.334 51.4792 164.334 51.5977C164.334 51.7116 164.286 51.8118 164.19 51.8984C164.095 51.9805 163.944 52.0762 163.739 52.1855C163.534 52.2949 163.295 52.3997 163.021 52.5C162.37 52.7415 161.786 52.8623 161.271 52.8623C160.902 52.8623 160.456 52.7051 159.932 52.3906L159.412 52.0762C159.262 51.9759 159.139 51.9258 159.043 51.9258C158.742 51.9258 158.514 51.96 158.359 52.0283ZM146.526 63.458C146.289 63.458 146.064 63.401 145.85 63.2871C145.64 63.1777 145.449 63.0205 145.275 62.8154C144.888 62.346 144.694 61.7832 144.694 61.127C144.694 60.8581 144.799 60.5892 145.009 60.3203C145.223 60.0469 145.572 59.8008 146.055 59.582C147.139 59.0944 148.723 58.8506 150.806 58.8506L156.527 54.4141C156.719 54.2637 156.833 54.1725 156.869 54.1406C156.928 54.0768 157.004 54.0449 157.095 54.0449C157.19 54.0449 157.282 54.054 157.368 54.0723C157.459 54.0905 157.541 54.1156 157.614 54.1475C157.774 54.2158 157.854 54.2956 157.854 54.3867C157.854 54.4505 157.838 54.5007 157.806 54.5371L153.896 58.8301H155.563C155.636 58.666 155.757 58.4382 155.926 58.1465L156.555 57.1211C156.801 56.7292 157.042 56.36 157.279 56.0137L157.97 55.0566C158.676 54.1133 159.187 53.6416 159.501 53.6416C159.533 53.6416 159.656 53.6849 159.87 53.7715C160.089 53.8535 160.273 53.9355 160.424 54.0176C160.788 54.209 160.971 54.389 160.971 54.5576C160.971 54.7171 160.9 54.8857 160.759 55.0635C160.618 55.2367 160.467 55.4417 160.308 55.6787C160.153 55.9157 159.984 56.1846 159.802 56.4854C159.624 56.7816 159.444 57.0983 159.262 57.4355C159.079 57.7682 158.915 58.0918 158.77 58.4062C158.437 59.1217 158.271 59.6071 158.271 59.8623C158.271 60.113 158.289 60.2952 158.325 60.4092C158.366 60.5231 158.414 60.6074 158.469 60.6621C158.555 60.7487 158.694 60.792 158.886 60.792C159.077 60.792 159.271 60.7578 159.467 60.6895C159.667 60.6165 159.861 60.5277 160.048 60.4229C160.239 60.3135 160.426 60.1973 160.608 60.0742C160.791 59.9466 160.968 59.8281 161.142 59.7188C161.543 59.4727 161.839 59.3496 162.03 59.3496C162.222 59.3496 162.349 59.3952 162.413 59.4863C162.481 59.5729 162.516 59.6868 162.516 59.8281C162.516 59.9694 162.456 60.1608 162.338 60.4023C162.219 60.6393 162.053 60.8854 161.839 61.1406C161.625 61.3958 161.372 61.6488 161.08 61.8994C160.788 62.1455 160.469 62.3665 160.123 62.5625C159.344 62.9954 158.58 63.2119 157.833 63.2119C157.159 63.2119 156.564 62.9749 156.049 62.501C155.475 61.9769 155.188 61.3001 155.188 60.4707C155.188 60.4297 155.188 60.3887 155.188 60.3477C155.188 60.3066 155.19 60.2633 155.194 60.2178L152.33 60.5801C151.523 61.373 150.548 62.0521 149.404 62.6172C148.256 63.1777 147.297 63.458 146.526 63.458ZM172.216 53.5527C172.439 53.4753 172.688 53.4365 172.961 53.4365C173.239 53.4365 173.517 53.457 173.795 53.498C174.077 53.5391 174.374 53.6051 174.684 53.6963C174.993 53.7874 175.303 53.9036 175.613 54.0449C175.923 54.1862 176.201 54.3548 176.447 54.5508C176.999 54.9883 177.274 55.5078 177.274 56.1094C177.274 56.8203 176.898 57.5996 176.146 58.4473C175.071 59.6595 173.531 60.7396 171.525 61.6875C170.263 62.2799 168.996 62.6992 167.725 62.9453C167.096 63.0638 166.483 63.123 165.886 63.123C165.293 63.123 164.781 63.0433 164.348 62.8838C163.919 62.7197 163.568 62.5169 163.295 62.2754C163.026 62.0339 162.83 61.7741 162.707 61.4961C162.584 61.2181 162.522 60.9242 162.522 60.6143C162.522 60.3044 162.614 59.9421 162.796 59.5273C162.983 59.1126 163.222 58.7025 163.514 58.2969C163.81 57.8867 164.14 57.4902 164.505 57.1074C164.874 56.7201 165.241 56.3623 165.605 56.0342C166.234 55.4736 166.838 54.9928 167.417 54.5918C168 54.1862 168.493 53.8672 168.894 53.6348C169.295 53.4023 169.63 53.2246 169.898 53.1016C170.354 52.8874 170.632 52.7803 170.732 52.7803C170.833 52.7803 170.944 52.8099 171.067 52.8691C171.195 52.9284 171.334 52.999 171.484 53.0811C171.858 53.2907 172.102 53.4479 172.216 53.5527ZM165.852 61.1133C165.934 61.1178 166.086 61.1201 166.31 61.1201C166.533 61.1201 166.856 61.0632 167.28 60.9492C167.704 60.8353 168.137 60.6826 168.579 60.4912C169.021 60.2952 169.463 60.0697 169.905 59.8145C170.352 59.5547 170.778 59.2835 171.184 59.001C171.589 58.7184 171.967 58.4313 172.318 58.1396C172.674 57.8434 172.981 57.5586 173.241 57.2852C173.797 56.7064 174.075 56.2666 174.075 55.9658C174.075 55.6559 173.888 55.4258 173.515 55.2754C173.264 55.1706 172.995 55.1182 172.708 55.1182C172.229 55.1182 171.835 55.1592 171.525 55.2412C170.195 55.8656 168.898 56.6813 167.636 57.6885C166.733 58.4085 166.089 59.0898 165.701 59.7324C165.501 60.0651 165.4 60.375 165.4 60.6621C165.4 60.9447 165.551 61.0951 165.852 61.1133ZM184.849 62.7744C184.675 62.6104 184.546 62.4258 184.459 62.2207C184.372 62.0111 184.329 61.8311 184.329 61.6807C184.329 61.5257 184.37 61.3434 184.452 61.1338C184.534 60.9242 184.646 60.6826 184.787 60.4092C184.928 60.1312 185.092 59.8304 185.279 59.5068C185.466 59.1787 185.667 58.8483 185.881 58.5156L186.523 57.5244C186.747 57.2008 186.965 56.9001 187.18 56.6221C186.268 56.9137 185.591 57.1986 185.149 57.4766C184.712 57.75 184.375 57.9505 184.138 58.0781C183.901 58.2057 183.705 58.2695 183.55 58.2695C183.295 58.2695 183.167 58.11 183.167 57.791C183.167 57.3353 183.404 56.7747 183.878 56.1094C184.37 55.4212 184.878 54.9951 185.402 54.8311C185.931 54.667 186.519 54.512 187.166 54.3662C187.818 54.2158 188.494 54.0859 189.196 53.9766C190.718 53.7396 192.133 53.6211 193.441 53.6211C194.936 53.6211 195.891 53.7624 196.306 54.0449C196.675 54.2956 196.925 54.6419 197.058 55.084C197.121 55.2982 197.153 55.5283 197.153 55.7744C197.153 56.0205 197.033 56.278 196.791 56.5469C196.554 56.8112 196.237 57.0618 195.841 57.2988C195.093 57.7546 194.114 58.1647 192.901 58.5293C193.59 58.6615 194.066 58.8141 194.33 58.9873C194.599 59.1559 194.788 59.3268 194.897 59.5C195.007 59.6686 195.062 59.8851 195.062 60.1494C195.062 60.4092 194.948 60.6781 194.72 60.9561C194.492 61.234 194.175 61.4938 193.77 61.7354C193.368 61.9769 192.892 62.1956 192.341 62.3916C191.794 62.5876 191.199 62.7539 190.557 62.8906C189.217 63.1823 187.822 63.3281 186.373 63.3281C185.744 63.3281 185.236 63.1436 184.849 62.7744ZM188.656 57.6406C187.973 58.8255 187.631 59.6458 187.631 60.1016C187.631 60.3112 187.74 60.5072 187.959 60.6895C188.164 60.8626 188.378 60.9492 188.602 60.9492C188.825 60.9492 189.071 60.9401 189.34 60.9219C189.609 60.8991 189.884 60.8695 190.167 60.833C190.45 60.7965 190.728 60.7533 191.001 60.7031C191.274 60.653 191.518 60.596 191.732 60.5322C192.206 60.391 192.443 60.2474 192.443 60.1016C192.443 59.8372 192.076 59.6185 191.343 59.4453C190.746 59.3086 190.176 59.2402 189.634 59.2402C189.424 59.2402 189.274 59.1992 189.183 59.1172C189.091 59.0306 189.046 58.9326 189.046 58.8232C189.046 58.7093 189.101 58.5931 189.21 58.4746C189.324 58.3516 189.477 58.2513 189.668 58.1738C191.217 57.7865 192.512 57.3512 193.551 56.8682C194.061 56.6312 194.316 56.4512 194.316 56.3281C194.316 56.1504 194.264 56.0068 194.159 55.8975C193.972 55.7015 193.765 55.6035 193.537 55.6035C193.309 55.6035 193.049 55.6126 192.758 55.6309C192.466 55.6491 192.152 55.6764 191.814 55.7129C191.072 55.7858 190.336 55.8906 189.606 56.0273C189.502 56.2415 189.363 56.4831 189.189 56.752L188.656 57.6406ZM207.134 53.5527C207.357 53.4753 207.605 53.4365 207.879 53.4365C208.157 53.4365 208.435 53.457 208.713 53.498C208.995 53.5391 209.292 53.6051 209.602 53.6963C209.911 53.7874 210.221 53.9036 210.531 54.0449C210.841 54.1862 211.119 54.3548 211.365 54.5508C211.917 54.9883 212.192 55.5078 212.192 56.1094C212.192 56.8203 211.816 57.5996 211.064 58.4473C209.989 59.6595 208.449 60.7396 206.443 61.6875C205.181 62.2799 203.914 62.6992 202.643 62.9453C202.014 63.0638 201.401 63.123 200.804 63.123C200.211 63.123 199.699 63.0433 199.266 62.8838C198.837 62.7197 198.486 62.5169 198.213 62.2754C197.944 62.0339 197.748 61.7741 197.625 61.4961C197.502 61.2181 197.44 60.9242 197.44 60.6143C197.44 60.3044 197.532 59.9421 197.714 59.5273C197.901 59.1126 198.14 58.7025 198.432 58.2969C198.728 57.8867 199.058 57.4902 199.423 57.1074C199.792 56.7201 200.159 56.3623 200.523 56.0342C201.152 55.4736 201.756 54.9928 202.335 54.5918C202.918 54.1862 203.41 53.8672 203.812 53.6348C204.213 53.4023 204.548 53.2246 204.816 53.1016C205.272 52.8874 205.55 52.7803 205.65 52.7803C205.751 52.7803 205.862 52.8099 205.985 52.8691C206.113 52.9284 206.252 52.999 206.402 53.0811C206.776 53.2907 207.02 53.4479 207.134 53.5527ZM200.77 61.1133C200.852 61.1178 201.004 61.1201 201.228 61.1201C201.451 61.1201 201.774 61.0632 202.198 60.9492C202.622 60.8353 203.055 60.6826 203.497 60.4912C203.939 60.2952 204.381 60.0697 204.823 59.8145C205.27 59.5547 205.696 59.2835 206.102 59.001C206.507 58.7184 206.885 58.4313 207.236 58.1396C207.592 57.8434 207.899 57.5586 208.159 57.2852C208.715 56.7064 208.993 56.2666 208.993 55.9658C208.993 55.6559 208.806 55.4258 208.433 55.2754C208.182 55.1706 207.913 55.1182 207.626 55.1182C207.147 55.1182 206.753 55.1592 206.443 55.2412C205.113 55.8656 203.816 56.6813 202.554 57.6885C201.651 58.4085 201.007 59.0898 200.619 59.7324C200.419 60.0651 200.318 60.375 200.318 60.6621C200.318 60.9447 200.469 61.0951 200.77 61.1133ZM224.627 61.3389L224.641 60.874C224.65 60.5824 224.677 60.2633 224.723 59.917L224.832 59.1104C224.855 58.9189 224.878 58.7458 224.9 58.5908C224.467 59.0648 224.119 59.4339 223.854 59.6982L223.068 60.4639C221.309 62.109 220.261 62.9316 219.924 62.9316C219.427 62.9316 218.905 62.8245 218.358 62.6104C218.062 62.4919 217.894 62.3688 217.853 62.2412C217.789 62.0817 217.757 61.8652 217.757 61.5918C217.757 61.3138 217.766 61.0586 217.784 60.8262C217.802 60.5938 217.825 60.3636 217.853 60.1357C217.88 59.9033 217.907 59.6823 217.935 59.4727C217.966 59.2585 217.992 59.0716 218.01 58.9121C218.055 58.5521 218.064 58.3721 218.037 58.3721L215.494 61.4961C214.296 62.9043 213.614 63.6836 213.45 63.834C213.099 64.153 212.712 64.3125 212.288 64.3125C212.078 64.3125 211.905 64.2601 211.769 64.1553C211.632 64.0505 211.563 63.9206 211.563 63.7656C211.563 63.4557 211.693 63.1322 211.953 62.7949L218.023 55.0771L218.734 54.2227C219.582 53.2246 220.138 52.7256 220.402 52.7256C220.771 52.7256 221.122 52.819 221.455 53.0059C221.751 53.1699 221.92 53.3294 221.961 53.4844C221.979 53.5436 221.94 53.8193 221.845 54.3115L221.605 55.6035C221.337 57.0436 221.202 57.9733 221.202 58.3926C221.202 58.8073 221.25 59.0146 221.346 59.0146C221.656 59.0146 222.253 58.5065 223.137 57.4902L225.352 54.8379C225.839 54.2773 226.163 53.9583 226.322 53.8809C226.368 53.8581 226.434 53.8467 226.521 53.8467C226.607 53.8467 226.703 53.8581 226.808 53.8809C226.917 53.9036 227.026 53.9333 227.136 53.9697C227.25 54.0062 227.359 54.0495 227.464 54.0996C227.569 54.1497 227.662 54.2021 227.744 54.2568C227.922 54.3753 228.008 54.4733 228.004 54.5508C228.004 54.6237 227.986 54.7855 227.949 55.0361C227.913 55.2822 227.867 55.583 227.812 55.9385C227.434 58.2946 227.236 59.6618 227.218 60.04C227.204 60.4183 227.243 60.6553 227.334 60.751C227.43 60.8467 227.569 60.8945 227.751 60.8945C228.084 60.8945 228.567 60.6963 229.2 60.2998C229.629 60.0309 229.982 59.8965 230.26 59.8965C230.542 59.8965 230.684 60.0309 230.684 60.2998C230.684 60.5778 230.533 60.915 230.232 61.3115C229.799 61.8857 229.152 62.4053 228.291 62.8701C227.566 63.2575 226.878 63.4512 226.227 63.4512C225.16 63.4512 224.627 62.7471 224.627 61.3389ZM249.243 61.0244C250.173 61.4574 250.838 61.6738 251.239 61.6738C251.294 61.6738 251.374 61.6624 251.479 61.6396L251.82 61.5645C251.943 61.5326 252.073 61.4984 252.21 61.4619C252.351 61.4255 252.486 61.3936 252.613 61.3662C253.11 61.2614 253.404 61.291 253.495 61.4551C253.541 61.5371 253.563 61.6191 253.563 61.7012C253.563 61.9564 253.495 62.1774 253.358 62.3643C253.226 62.5511 253.076 62.722 252.907 62.877C252.743 63.0319 252.549 63.1846 252.326 63.335C252.107 63.4899 251.868 63.6289 251.608 63.752C251.03 64.0254 250.462 64.1621 249.906 64.1621C249.232 64.1621 248.295 63.7474 247.097 62.918L246.201 62.3164C245.531 61.888 245.041 61.6738 244.731 61.6738C244.426 61.6738 244.164 61.7331 243.945 61.8516C243.727 61.9655 243.517 62.0954 243.316 62.2412C243.508 62.2686 243.672 62.2891 243.809 62.3027C243.945 62.3118 244.05 62.3232 244.123 62.3369C244.201 62.3506 244.269 62.403 244.328 62.4941C244.387 62.5807 244.417 62.6696 244.417 62.7607C244.417 62.8473 244.406 62.9248 244.383 62.9932C244.36 63.057 244.324 63.1139 244.273 63.1641C244.169 63.2826 244.027 63.3418 243.85 63.3418C243.676 63.3418 243.458 63.3304 243.193 63.3076C242.929 63.2894 242.637 63.2552 242.318 63.2051C241.999 63.1595 241.664 63.0957 241.313 63.0137C240.963 62.9362 240.618 62.8359 240.281 62.7129C239.944 62.5898 239.62 62.444 239.311 62.2754C239.005 62.1068 238.736 61.9108 238.504 61.6875C237.993 61.1953 237.738 60.6211 237.738 59.9648C237.738 58.7389 238.518 57.5791 240.076 56.4854C241.535 55.46 243.346 54.6921 245.511 54.1816C246.937 53.849 248.334 53.6826 249.701 53.6826C250.708 53.6826 251.456 53.792 251.943 54.0107C252.65 54.3298 253.003 54.9746 253.003 55.9453C253.003 56.8385 252.67 57.7591 252.005 58.707C251.294 59.7188 250.373 60.4912 249.243 61.0244ZM247.582 60.2041C248.63 59.5296 249.355 58.7161 249.756 57.7637C249.902 57.4219 249.975 57.0391 249.975 56.6152C249.975 55.7539 249.428 55.3232 248.334 55.3232C247.459 55.3232 246.342 55.681 244.984 56.3965C243.594 57.1302 242.526 57.9551 241.778 58.8711C241.227 59.5456 240.951 60.1676 240.951 60.7373C240.951 61.1748 241.225 61.5303 241.771 61.8037C242.159 61.2979 242.824 60.7852 243.768 60.2656C244.693 59.7643 245.326 59.5137 245.668 59.5137C246.014 59.5137 246.652 59.7438 247.582 60.2041ZM264.959 59.7666C264.959 60.2269 265.103 60.457 265.39 60.457C265.517 60.457 265.738 60.3568 266.053 60.1562C266.673 59.7415 267.101 59.4499 267.338 59.2812L267.885 58.8779C268.012 58.7822 268.138 58.6842 268.261 58.584C268.388 58.4837 268.543 58.3971 268.726 58.3242C268.908 58.2467 269.056 58.208 269.17 58.208C269.284 58.208 269.357 58.249 269.389 58.3311C269.421 58.4131 269.437 58.5133 269.437 58.6318C269.437 58.7503 269.411 58.8711 269.361 58.9941C269.316 59.1126 269.254 59.2402 269.177 59.377C268.958 59.7552 268.735 60.0537 268.507 60.2725C268.279 60.4912 268.081 60.6712 267.912 60.8125L267.345 61.2773C266.283 62.1068 265.378 62.6468 264.631 62.8975C264.426 62.9658 264.184 63 263.906 63C263.633 63 263.368 62.9339 263.113 62.8018C262.858 62.6696 262.655 62.4987 262.505 62.2891C262.236 61.9062 262.102 61.3867 262.102 60.7305C262.102 60.4525 262.124 60.1813 262.17 59.917C261.172 60.988 260.313 61.7513 259.593 62.207C258.64 62.8086 257.642 63.1094 256.599 63.1094C255.988 63.1094 255.432 62.902 254.931 62.4873C254.397 62.0452 254.131 61.5143 254.131 60.8945C254.131 59.7142 254.906 58.0508 256.455 55.9043L257.118 55.0156C257.574 54.446 257.932 54.0381 258.191 53.792C258.251 53.7464 258.33 53.7236 258.431 53.7236C258.763 53.7236 259.139 53.8923 259.559 54.2295C260.01 54.5895 260.215 54.9268 260.174 55.2412C260.137 55.6149 259.9 56.082 259.463 56.6426C259.271 56.8841 259.066 57.1302 258.848 57.3809C258.633 57.627 258.428 57.8776 258.232 58.1328C257.781 58.7253 257.528 59.2425 257.474 59.6846C257.442 59.9261 257.535 60.1061 257.754 60.2246C257.818 60.2611 257.943 60.2793 258.13 60.2793C258.317 60.2793 258.572 60.2201 258.896 60.1016C259.224 59.9785 259.554 59.819 259.887 59.623C260.224 59.4225 260.557 59.1969 260.885 58.9463C261.217 58.6956 261.532 58.4404 261.828 58.1807C262.129 57.9209 262.405 57.668 262.655 57.4219L263.305 56.7588C264.654 55.264 265.406 54.4368 265.561 54.2773C265.898 53.931 266.105 53.7578 266.183 53.7578C266.26 53.7578 266.347 53.7783 266.442 53.8193C266.543 53.8604 266.647 53.915 266.757 53.9834C266.871 54.0518 266.982 54.1292 267.092 54.2158C267.206 54.3024 267.311 54.3958 267.406 54.4961C267.611 54.7103 267.723 54.8994 267.741 55.0635C267.769 55.1637 267.702 55.3643 267.543 55.665C267.388 55.9613 267.219 56.2142 267.037 56.4238L266.436 57.1211C265.611 58.069 265.137 58.8005 265.014 59.3154C264.977 59.4704 264.959 59.6208 264.959 59.7666ZM269.635 62.8154C269.284 62.6605 269.008 62.4668 268.808 62.2344C268.612 62.002 268.482 61.7832 268.418 61.5781C268.318 61.2728 268.268 61.0107 268.268 60.792C268.268 60.5732 268.338 60.3226 268.479 60.04C268.625 59.7575 268.865 59.4772 269.197 59.1992C269.926 58.5931 271.045 58.0736 272.554 57.6406C272.071 57.4355 271.795 57.1097 271.727 56.6631C271.658 56.1527 271.877 55.6992 272.383 55.3027C273.317 54.569 275.113 54.0723 277.77 53.8125C278.59 53.735 279.185 53.6963 279.554 53.6963C279.927 53.6963 280.192 53.7555 280.347 53.874C280.506 53.9925 280.6 54.1702 280.627 54.4072C280.659 54.6396 280.616 54.8356 280.497 54.9951C280.379 55.1546 280.21 55.2822 279.991 55.3779C279.586 55.5557 279.032 55.6445 278.33 55.6445C277.815 55.6445 277.346 55.5671 276.922 55.4121C276.808 55.3665 276.719 55.3187 276.655 55.2686C275.744 55.5511 275.227 55.8678 275.104 56.2188C275.067 56.3099 275.053 56.3942 275.062 56.4717C275.104 56.7497 275.286 56.9548 275.609 57.0869C275.933 57.2191 276.425 57.3034 277.086 57.3398C277.305 57.3581 277.466 57.4173 277.571 57.5176C277.681 57.6178 277.742 57.7227 277.756 57.832C277.774 57.9414 277.767 58.028 277.735 58.0918C277.703 58.151 277.656 58.2012 277.592 58.2422C277.482 58.3151 277.266 58.3766 276.942 58.4268C276.619 58.4769 276.243 58.5475 275.814 58.6387C275.386 58.7253 274.978 58.8187 274.591 58.9189C274.203 59.0192 273.843 59.1217 273.511 59.2266C273.183 59.3314 272.898 59.4316 272.656 59.5273C272.146 59.7415 271.9 59.9147 271.918 60.0469C271.936 60.1745 271.989 60.2861 272.075 60.3818C272.162 60.4775 272.278 60.5618 272.424 60.6348C272.697 60.7624 273.03 60.8444 273.422 60.8809C273.818 60.9128 274.201 60.9287 274.57 60.9287C274.944 60.9287 275.343 60.8991 275.767 60.8398C276.195 60.776 276.594 60.6963 276.963 60.6006C277.337 60.5049 277.678 60.4046 277.988 60.2998C278.303 60.1904 278.576 60.0879 278.809 59.9922L279.369 59.7598C279.515 59.696 279.647 59.6641 279.766 59.6641C280.08 59.6641 280.258 59.8304 280.299 60.1631C280.354 60.6143 279.848 61.1224 278.781 61.6875C277.355 62.4486 275.778 62.9453 274.051 63.1777C273.65 63.2324 273.167 63.2598 272.602 63.2598C272.041 63.2598 271.494 63.2233 270.961 63.1504C270.428 63.0775 269.986 62.9658 269.635 62.8154ZM288.023 62.5762C287.946 62.444 287.916 62.3164 287.935 62.1934C287.957 62.0658 288.019 61.9017 288.119 61.7012C288.219 61.4961 288.356 61.2409 288.529 60.9355L289.131 59.9102L289.869 58.6934L290.703 57.3809L291.578 56.0684C290.48 56.3418 289.641 56.6676 289.062 57.0459C288.967 57.1097 288.885 57.1758 288.816 57.2441L288.584 57.4766C288.443 57.6178 288.304 57.6885 288.167 57.6885C288.03 57.6885 287.923 57.6725 287.846 57.6406C287.773 57.6042 287.714 57.5586 287.668 57.5039C287.554 57.3717 287.534 57.2259 287.606 57.0664C287.802 56.4375 288.083 55.7949 288.447 55.1387C288.648 54.7741 288.807 54.5645 288.926 54.5098C289.792 54.1361 291.596 53.8649 294.34 53.6963C295.233 53.6416 296.172 53.6143 297.156 53.6143C297.799 53.6143 298.41 53.8444 298.988 54.3047C299.635 54.8288 299.959 55.485 299.959 56.2734C299.959 57.3034 299.075 58.2786 297.307 59.1992C296.327 59.7142 295.406 60.0742 294.545 60.2793C294.322 60.3294 294.148 60.3545 294.025 60.3545C293.907 60.3545 293.77 60.3385 293.615 60.3066C293.465 60.2747 293.328 60.2292 293.205 60.1699C292.913 60.0241 292.768 59.8486 292.768 59.6436C292.768 59.3519 293.048 59.0557 293.608 58.7549L295.078 57.9619C295.949 57.4971 296.486 57.1598 296.691 56.9502C296.896 56.7406 296.999 56.5697 296.999 56.4375C296.999 56.3008 296.972 56.1755 296.917 56.0615C296.867 55.9476 296.796 55.8451 296.705 55.7539C296.509 55.5579 296.299 55.46 296.076 55.46C295.611 55.46 295.051 55.4964 294.395 55.5693L293.561 57.0391C292.494 58.9759 291.77 60.7168 291.387 62.2617C291.232 62.8633 290.646 63.1641 289.63 63.1641C288.791 63.1641 288.256 62.9681 288.023 62.5762ZM301.251 63.458C301.014 63.458 300.788 63.401 300.574 63.2871C300.365 63.1777 300.173 63.0205 300 62.8154C299.613 62.346 299.419 61.7832 299.419 61.127C299.419 60.8581 299.524 60.5892 299.733 60.3203C299.948 60.0469 300.296 59.8008 300.779 59.582C301.864 59.0944 303.448 58.8506 305.53 58.8506C305.53 58.8506 307.438 57.3717 311.252 54.4141C311.443 54.2637 311.557 54.1725 311.594 54.1406C311.653 54.0768 311.728 54.0449 311.819 54.0449C311.915 54.0449 312.006 54.054 312.093 54.0723C312.184 54.0905 312.266 54.1156 312.339 54.1475C312.498 54.2158 312.578 54.2956 312.578 54.3867C312.578 54.4505 312.562 54.5007 312.53 54.5371L308.62 58.8301H310.288C310.361 58.666 310.482 58.4382 310.65 58.1465L311.279 57.1211C311.525 56.7292 311.767 56.36 312.004 56.0137L312.694 55.0566C313.401 54.1133 313.911 53.6416 314.226 53.6416C314.257 53.6416 314.381 53.6849 314.595 53.7715C314.813 53.8535 314.998 53.9355 315.148 54.0176C315.513 54.209 315.695 54.389 315.695 54.5576C315.695 54.7171 315.625 54.8857 315.483 55.0635C315.342 55.2367 315.192 55.4417 315.032 55.6787C314.877 55.9157 314.709 56.1846 314.526 56.4854C314.349 56.7816 314.169 57.0983 313.986 57.4355C313.804 57.7682 313.64 58.0918 313.494 58.4062C313.161 59.1217 312.995 59.6071 312.995 59.8623C312.995 60.113 313.013 60.2952 313.05 60.4092C313.091 60.5231 313.139 60.6074 313.193 60.6621C313.28 60.7487 313.419 60.792 313.61 60.792C313.802 60.792 313.995 60.7578 314.191 60.6895C314.392 60.6165 314.586 60.5277 314.772 60.4229C314.964 60.3135 315.151 60.1973 315.333 60.0742C315.515 59.9466 315.693 59.8281 315.866 59.7188C316.267 59.4727 316.563 59.3496 316.755 59.3496C316.946 59.3496 317.074 59.3952 317.138 59.4863C317.206 59.5729 317.24 59.6868 317.24 59.8281C317.24 59.9694 317.181 60.1608 317.062 60.4023C316.944 60.6393 316.778 60.8854 316.563 61.1406C316.349 61.3958 316.096 61.6488 315.805 61.8994C315.513 62.1455 315.194 62.3665 314.848 62.5625C314.068 62.9954 313.305 63.2119 312.558 63.2119C311.883 63.2119 311.288 62.9749 310.773 62.501C310.199 61.9769 309.912 61.3001 309.912 60.4707C309.912 60.4297 309.912 60.3887 309.912 60.3477C309.912 60.3066 309.914 60.2633 309.919 60.2178L307.055 60.5801C306.248 61.373 305.273 62.0521 304.129 62.6172C302.98 63.1777 302.021 63.458 301.251 63.458ZM317.801 57.2373C317.509 57.2373 317.363 57.0983 317.363 56.8203C317.363 56.6927 317.429 56.4626 317.562 56.1299C317.694 55.7926 317.808 55.5306 317.903 55.3438C318.122 54.9062 318.345 54.6032 318.573 54.4346C318.938 54.1657 320.362 53.9219 322.846 53.7031C323.926 53.612 324.712 53.5664 325.204 53.5664C325.696 53.5664 326.045 53.5732 326.25 53.5869C326.46 53.6006 326.676 53.6257 326.899 53.6621C327.123 53.694 327.346 53.7373 327.569 53.792C327.793 53.8421 328.005 53.9059 328.205 53.9834C328.638 54.152 328.941 54.3617 329.114 54.6123C329.657 55.4007 329.928 56.0433 329.928 56.54C329.928 57.096 329.504 57.6406 328.656 58.1738C328.401 58.3379 328.128 58.502 327.836 58.666C326.774 59.2402 326.152 59.5798 325.97 59.6846C326.353 60.4274 327.102 61.1953 328.219 61.9883C328.351 62.0794 328.456 62.1478 328.533 62.1934C328.875 62.3939 329.278 62.362 329.743 62.0977C329.871 62.0202 330.001 61.9814 330.133 61.9814C330.265 61.9814 330.381 62.0316 330.481 62.1318C330.582 62.2275 330.632 62.3346 330.632 62.4531C330.632 62.9954 330.27 63.5788 329.545 64.2031C329.007 64.668 328.522 64.9004 328.089 64.9004C327.738 64.9004 326.975 64.3854 325.799 63.3555C325.133 62.7721 324.593 62.2503 324.179 61.79C323.764 61.3298 323.479 60.988 323.324 60.7646C323.169 60.5368 323.092 60.3408 323.092 60.1768C323.092 60.0127 323.131 59.8669 323.208 59.7393C323.29 59.6117 323.399 59.4886 323.536 59.3701C323.75 59.1878 324.056 58.9941 324.452 58.7891C324.849 58.5794 325.172 58.3812 325.423 58.1943C325.674 58.0075 325.89 57.8138 326.072 57.6133C326.473 57.1895 326.674 56.8066 326.674 56.4648C326.674 56.2415 326.605 56.0547 326.469 55.9043C326.218 55.6354 325.986 55.501 325.771 55.501C325.402 55.501 324.951 55.526 324.418 55.5762L323.584 57.0527C322.522 58.9805 321.798 60.7168 321.41 62.2617C321.255 62.8633 320.67 63.1641 319.653 63.1641C318.815 63.1641 318.279 62.9681 318.047 62.5762C317.969 62.444 317.94 62.3164 317.958 62.1934C317.981 62.0658 318.042 61.9017 318.143 61.7012C318.243 61.4961 318.38 61.2409 318.553 60.9355L319.161 59.8965L319.906 58.6729L320.747 57.3535L321.622 56.041C320.032 56.3828 318.872 56.752 318.143 57.1484C318.033 57.2077 317.919 57.2373 317.801 57.2373ZM332.389 62.8154C332.038 62.6605 331.762 62.4668 331.562 62.2344C331.366 62.002 331.236 61.7832 331.172 61.5781C331.072 61.2728 331.021 61.0107 331.021 60.792C331.021 60.5732 331.092 60.3226 331.233 60.04C331.379 59.7575 331.618 59.4772 331.951 59.1992C332.68 58.5931 333.799 58.0736 335.308 57.6406C334.825 57.4355 334.549 57.1097 334.48 56.6631C334.412 56.1527 334.631 55.6992 335.137 55.3027C336.071 54.569 337.867 54.0723 340.523 53.8125C341.344 53.735 341.938 53.6963 342.308 53.6963C342.681 53.6963 342.946 53.7555 343.101 53.874C343.26 53.9925 343.354 54.1702 343.381 54.4072C343.413 54.6396 343.369 54.8356 343.251 54.9951C343.132 55.1546 342.964 55.2822 342.745 55.3779C342.34 55.5557 341.786 55.6445 341.084 55.6445C340.569 55.6445 340.1 55.5671 339.676 55.4121C339.562 55.3665 339.473 55.3187 339.409 55.2686C338.498 55.5511 337.98 55.8678 337.857 56.2188C337.821 56.3099 337.807 56.3942 337.816 56.4717C337.857 56.7497 338.04 56.9548 338.363 57.0869C338.687 57.2191 339.179 57.3034 339.84 57.3398C340.059 57.3581 340.22 57.4173 340.325 57.5176C340.435 57.6178 340.496 57.7227 340.51 57.832C340.528 57.9414 340.521 58.028 340.489 58.0918C340.457 58.151 340.41 58.2012 340.346 58.2422C340.236 58.3151 340.02 58.3766 339.696 58.4268C339.373 58.4769 338.997 58.5475 338.568 58.6387C338.14 58.7253 337.732 58.8187 337.345 58.9189C336.957 59.0192 336.597 59.1217 336.265 59.2266C335.937 59.3314 335.652 59.4316 335.41 59.5273C334.9 59.7415 334.654 59.9147 334.672 60.0469C334.69 60.1745 334.743 60.2861 334.829 60.3818C334.916 60.4775 335.032 60.5618 335.178 60.6348C335.451 60.7624 335.784 60.8444 336.176 60.8809C336.572 60.9128 336.955 60.9287 337.324 60.9287C337.698 60.9287 338.097 60.8991 338.521 60.8398C338.949 60.776 339.348 60.6963 339.717 60.6006C340.09 60.5049 340.432 60.4046 340.742 60.2998C341.057 60.1904 341.33 60.0879 341.562 59.9922L342.123 59.7598C342.269 59.696 342.401 59.6641 342.52 59.6641C342.834 59.6641 343.012 59.8304 343.053 60.1631C343.107 60.6143 342.602 61.1224 341.535 61.6875C340.109 62.4486 338.532 62.9453 336.805 63.1777C336.404 63.2324 335.921 63.2598 335.355 63.2598C334.795 63.2598 334.248 63.2233 333.715 63.1504C333.182 63.0775 332.74 62.9658 332.389 62.8154ZM347.318 59.7871C347.318 60.5482 348.077 60.9287 349.595 60.9287C350.62 60.9287 351.908 60.5413 353.457 59.7666L354.154 59.3975C355.212 58.8597 355.809 58.7435 355.945 59.0488C355.982 59.1309 356 59.2266 356 59.3359C356 59.4408 355.954 59.5501 355.863 59.6641C355.777 59.7734 355.658 59.8965 355.508 60.0332C355.357 60.1654 355.182 60.3066 354.981 60.457C354.781 60.6029 354.569 60.7487 354.346 60.8945L353.676 61.3115C353.448 61.4482 353.202 61.5827 352.938 61.7148L351.939 62.207C350.376 62.9362 348.902 63.3008 347.517 63.3008C346.304 63.3008 345.372 63.0615 344.721 62.583C344.137 62.1592 343.846 61.6123 343.846 60.9424C343.846 60.0173 344.263 59.0853 345.097 58.1465C345.817 57.3398 346.803 56.5742 348.057 55.8496C349.15 55.2161 350.317 54.6966 351.557 54.291C352.728 53.9036 353.678 53.71 354.407 53.71C354.562 53.71 354.692 53.7601 354.797 53.8604C354.988 54.0381 355.084 54.2135 355.084 54.3867C355.084 55.0612 354.804 55.6058 354.243 56.0205C353.765 56.3714 353.206 56.5469 352.568 56.5469C351.93 56.5469 351.452 56.4831 351.133 56.3555C349.943 56.8158 348.977 57.4333 348.234 58.208C347.924 58.5316 347.694 58.8346 347.544 59.1172C347.394 59.3997 347.318 59.623 347.318 59.7871ZM356.369 62.8154C356.018 62.6605 355.743 62.4668 355.542 62.2344C355.346 62.002 355.216 61.7832 355.152 61.5781C355.052 61.2728 355.002 61.0107 355.002 60.792C355.002 60.5732 355.073 60.3226 355.214 60.04C355.36 59.7575 355.599 59.4772 355.932 59.1992C356.661 58.5931 357.78 58.0736 359.288 57.6406C358.805 57.4355 358.529 57.1097 358.461 56.6631C358.393 56.1527 358.611 55.6992 359.117 55.3027C360.051 54.569 361.847 54.0723 364.504 53.8125C365.324 53.735 365.919 53.6963 366.288 53.6963C366.662 53.6963 366.926 53.7555 367.081 53.874C367.241 53.9925 367.334 54.1702 367.361 54.4072C367.393 54.6396 367.35 54.8356 367.231 54.9951C367.113 55.1546 366.944 55.2822 366.726 55.3779C366.32 55.5557 365.766 55.6445 365.064 55.6445C364.549 55.6445 364.08 55.5671 363.656 55.4121C363.542 55.3665 363.453 55.3187 363.39 55.2686C362.478 55.5511 361.961 55.8678 361.838 56.2188C361.801 56.3099 361.788 56.3942 361.797 56.4717C361.838 56.7497 362.02 56.9548 362.344 57.0869C362.667 57.2191 363.16 57.3034 363.82 57.3398C364.039 57.3581 364.201 57.4173 364.306 57.5176C364.415 57.6178 364.477 57.7227 364.49 57.832C364.508 57.9414 364.502 58.028 364.47 58.0918C364.438 58.151 364.39 58.2012 364.326 58.2422C364.217 58.3151 364 58.3766 363.677 58.4268C363.353 58.4769 362.977 58.5475 362.549 58.6387C362.12 58.7253 361.713 58.8187 361.325 58.9189C360.938 59.0192 360.578 59.1217 360.245 59.2266C359.917 59.3314 359.632 59.4316 359.391 59.5273C358.88 59.7415 358.634 59.9147 358.652 60.0469C358.671 60.1745 358.723 60.2861 358.81 60.3818C358.896 60.4775 359.012 60.5618 359.158 60.6348C359.432 60.7624 359.764 60.8444 360.156 60.8809C360.553 60.9128 360.936 60.9287 361.305 60.9287C361.678 60.9287 362.077 60.8991 362.501 60.8398C362.929 60.776 363.328 60.6963 363.697 60.6006C364.071 60.5049 364.413 60.4046 364.723 60.2998C365.037 60.1904 365.311 60.0879 365.543 59.9922L366.104 59.7598C366.249 59.696 366.382 59.6641 366.5 59.6641C366.814 59.6641 366.992 59.8304 367.033 60.1631C367.088 60.6143 366.582 61.1224 365.516 61.6875C364.089 62.4486 362.512 62.9453 360.785 63.1777C360.384 63.2324 359.901 63.2598 359.336 63.2598C358.775 63.2598 358.229 63.2233 357.695 63.1504C357.162 63.0775 356.72 62.9658 356.369 62.8154ZM386.105 53.4297C386.411 53.4297 386.563 53.5345 386.563 53.7441C386.563 54.0221 386.352 54.446 385.928 55.0156C385.586 55.4714 385.096 55.7767 384.458 55.9316C384.267 55.9818 384.091 56.0068 383.932 56.0068C383.777 56.0068 383.608 55.9954 383.426 55.9727C382.956 55.9134 382.368 55.8747 381.662 55.8564C381.106 56.8408 380.696 57.5928 380.432 58.1123L381.491 58.085C381.705 58.0941 381.967 58.0827 382.277 58.0508L382.961 57.9893C383.098 57.9756 383.189 57.9665 383.234 57.9619C383.421 57.9437 383.537 57.9688 383.583 58.0371C383.67 58.1602 383.713 58.3037 383.713 58.4678C383.713 58.6318 383.701 58.7731 383.679 58.8916C383.656 59.0055 383.624 59.1149 383.583 59.2197C383.492 59.4521 383.389 59.6139 383.275 59.7051C383.029 59.901 382.619 59.999 382.045 59.999C381.936 59.999 381.831 59.9945 381.73 59.9854L379.646 59.8213C379.295 60.6553 379.019 61.4688 378.818 62.2617C378.663 62.8633 378.078 63.1641 377.062 63.1641C376.223 63.1641 375.688 62.9681 375.455 62.5762C375.378 62.444 375.348 62.3187 375.366 62.2002C375.384 62.0817 375.428 61.9495 375.496 61.8037C375.569 61.6533 375.665 61.4688 375.783 61.25L376.754 59.5889C376.736 59.5889 376.674 59.5843 376.569 59.5752C376.469 59.5661 376.394 59.5547 376.344 59.541C376.221 59.5 376.12 59.4248 376.043 59.3154C375.965 59.2061 375.927 59.0921 375.927 58.9736C375.927 58.7412 375.995 58.5658 376.132 58.4473C376.269 58.3288 376.41 58.2604 376.556 58.2422C376.706 58.224 376.868 58.2126 377.041 58.208L377.615 58.1943C378.317 57.1051 378.825 56.335 379.14 55.8838C378.009 55.9658 377.027 56.2324 376.193 56.6836C375.961 56.8112 375.772 56.9365 375.626 57.0596C375.485 57.1826 375.364 57.2441 375.264 57.2441C375.163 57.2441 375.077 57.2305 375.004 57.2031C374.936 57.1712 374.872 57.1302 374.812 57.0801C374.685 56.9661 374.621 56.8431 374.621 56.7109C374.621 56.5742 374.658 56.4489 374.73 56.335C375.601 54.9906 376.572 54.168 377.643 53.8672C378.021 53.7624 378.436 53.71 378.887 53.71C380.764 53.71 382.255 53.6872 383.357 53.6416C384.465 53.596 385.069 53.5664 385.169 53.5527L385.805 53.457C385.91 53.4388 386.01 53.4297 386.105 53.4297ZM386.823 63.458C386.586 63.458 386.361 63.401 386.146 63.2871C385.937 63.1777 385.745 63.0205 385.572 62.8154C385.185 62.346 384.991 61.7832 384.991 61.127C384.991 60.8581 385.096 60.5892 385.306 60.3203C385.52 60.0469 385.868 59.8008 386.352 59.582C387.436 59.0944 389.02 58.8506 391.103 58.8506C391.103 58.8506 393.01 57.3717 396.824 54.4141C397.016 54.2637 397.13 54.1725 397.166 54.1406C397.225 54.0768 397.3 54.0449 397.392 54.0449C397.487 54.0449 397.578 54.054 397.665 54.0723C397.756 54.0905 397.838 54.1156 397.911 54.1475C398.071 54.2158 398.15 54.2956 398.15 54.3867C398.15 54.4505 398.134 54.5007 398.103 54.5371L394.192 58.8301H395.86C395.933 58.666 396.054 58.4382 396.223 58.1465L396.852 57.1211C397.098 56.7292 397.339 56.36 397.576 56.0137L398.267 55.0566C398.973 54.1133 399.483 53.6416 399.798 53.6416C399.83 53.6416 399.953 53.6849 400.167 53.7715C400.386 53.8535 400.57 53.9355 400.721 54.0176C401.085 54.209 401.268 54.389 401.268 54.5576C401.268 54.7171 401.197 54.8857 401.056 55.0635C400.914 55.2367 400.764 55.4417 400.604 55.6787C400.45 55.9157 400.281 56.1846 400.099 56.4854C399.921 56.7816 399.741 57.0983 399.559 57.4355C399.376 57.7682 399.212 58.0918 399.066 58.4062C398.734 59.1217 398.567 59.6071 398.567 59.8623C398.567 60.113 398.586 60.2952 398.622 60.4092C398.663 60.5231 398.711 60.6074 398.766 60.6621C398.852 60.7487 398.991 60.792 399.183 60.792C399.374 60.792 399.568 60.7578 399.764 60.6895C399.964 60.6165 400.158 60.5277 400.345 60.4229C400.536 60.3135 400.723 60.1973 400.905 60.0742C401.088 59.9466 401.265 59.8281 401.438 59.7188C401.84 59.4727 402.136 59.3496 402.327 59.3496C402.519 59.3496 402.646 59.3952 402.71 59.4863C402.778 59.5729 402.812 59.6868 402.812 59.8281C402.812 59.9694 402.753 60.1608 402.635 60.4023C402.516 60.6393 402.35 60.8854 402.136 61.1406C401.922 61.3958 401.669 61.6488 401.377 61.8994C401.085 62.1455 400.766 62.3665 400.42 62.5625C399.641 62.9954 398.877 63.2119 398.13 63.2119C397.455 63.2119 396.861 62.9749 396.346 62.501C395.771 61.9769 395.484 61.3001 395.484 60.4707C395.484 60.4297 395.484 60.3887 395.484 60.3477C395.484 60.3066 395.487 60.2633 395.491 60.2178L392.627 60.5801C391.82 61.373 390.845 62.0521 389.701 62.6172C388.553 63.1777 387.593 63.458 386.823 63.458ZM413.135 53.7031C413.805 53.7031 414.14 53.8877 414.14 54.2568C414.14 54.5758 413.887 55.043 413.381 55.6582C413.317 55.7357 413.18 55.8678 412.971 56.0547L412.191 56.752L409.867 58.6865C409.981 58.8916 410.175 59.1377 410.448 59.4248C410.722 59.7119 410.965 59.9466 411.18 60.1289C411.645 60.5391 411.927 60.7441 412.027 60.7441C412.132 60.7441 412.262 60.7054 412.417 60.6279C412.576 60.5505 412.754 60.4502 412.95 60.3271C413.146 60.1995 413.354 60.056 413.572 59.8965L415.295 58.5908C415.459 58.4632 415.623 58.3994 415.787 58.3994C416.129 58.3994 416.3 58.5407 416.3 58.8232C416.3 59.1924 416.12 59.623 415.76 60.1152C415.65 60.2611 415.546 60.3841 415.445 60.4844L415.015 60.8809C413.766 62.0247 412.656 62.7812 411.686 63.1504C411.385 63.2689 411.116 63.3281 410.879 63.3281C410.642 63.3281 410.414 63.2871 410.195 63.2051C409.977 63.123 409.76 63.0137 409.546 62.877C409.332 62.7402 409.122 62.583 408.917 62.4053C408.716 62.223 408.525 62.0316 408.343 61.8311C408.01 61.4665 407.7 61.0654 407.413 60.6279L406.155 61.5645C404.815 62.5397 403.997 63.0273 403.701 63.0273C403.382 63.0273 403.075 62.9362 402.778 62.7539C402.692 62.7038 402.632 62.6491 402.601 62.5898C402.432 62.4212 402.348 62.0749 402.348 61.5508C402.348 61.0267 402.391 60.5596 402.478 60.1494C402.56 59.7347 402.671 59.3177 402.812 58.8984C402.954 58.4746 403.118 58.0553 403.305 57.6406C403.492 57.2259 403.688 56.8294 403.893 56.4512C404.098 56.0729 404.307 55.722 404.521 55.3984C404.736 55.0703 404.941 54.7878 405.137 54.5508C405.547 54.0404 405.854 53.7852 406.06 53.7852C406.269 53.7852 406.479 53.8034 406.688 53.8398C406.898 53.8763 407.087 53.931 407.256 54.0039C407.639 54.1771 407.83 54.4118 407.83 54.708C407.83 54.8857 407.759 55.0771 407.618 55.2822C407.477 55.4873 407.32 55.7288 407.146 56.0068C406.682 56.7861 406.358 57.3398 406.176 57.668L405.718 58.5293C405.449 59.0579 405.314 59.3838 405.314 59.5068C405.314 59.6117 405.401 59.6641 405.574 59.6641C405.643 59.6641 405.893 59.4772 406.326 59.1035L407.475 58.1055L411.063 54.8242C411.237 54.6647 411.337 54.5713 411.364 54.5439C411.642 54.2614 411.938 54.0518 412.253 53.915C412.572 53.7738 412.866 53.7031 413.135 53.7031ZM416.826 62.8154C416.475 62.6605 416.2 62.4668 415.999 62.2344C415.803 62.002 415.673 61.7832 415.609 61.5781C415.509 61.2728 415.459 61.0107 415.459 60.792C415.459 60.5732 415.53 60.3226 415.671 60.04C415.817 59.7575 416.056 59.4772 416.389 59.1992C417.118 58.5931 418.237 58.0736 419.745 57.6406C419.262 57.4355 418.986 57.1097 418.918 56.6631C418.85 56.1527 419.068 55.6992 419.574 55.3027C420.508 54.569 422.304 54.0723 424.961 53.8125C425.781 53.735 426.376 53.6963 426.745 53.6963C427.119 53.6963 427.383 53.7555 427.538 53.874C427.698 53.9925 427.791 54.1702 427.818 54.4072C427.85 54.6396 427.807 54.8356 427.688 54.9951C427.57 55.1546 427.401 55.2822 427.183 55.3779C426.777 55.5557 426.223 55.6445 425.521 55.6445C425.007 55.6445 424.537 55.5671 424.113 55.4121C423.999 55.3665 423.91 55.3187 423.847 55.2686C422.935 55.5511 422.418 55.8678 422.295 56.2188C422.258 56.3099 422.245 56.3942 422.254 56.4717C422.295 56.7497 422.477 56.9548 422.801 57.0869C423.124 57.2191 423.617 57.3034 424.277 57.3398C424.496 57.3581 424.658 57.4173 424.763 57.5176C424.872 57.6178 424.934 57.7227 424.947 57.832C424.965 57.9414 424.959 58.028 424.927 58.0918C424.895 58.151 424.847 58.2012 424.783 58.2422C424.674 58.3151 424.457 58.3766 424.134 58.4268C423.81 58.4769 423.434 58.5475 423.006 58.6387C422.577 58.7253 422.17 58.8187 421.782 58.9189C421.395 59.0192 421.035 59.1217 420.702 59.2266C420.374 59.3314 420.089 59.4316 419.848 59.5273C419.337 59.7415 419.091 59.9147 419.109 60.0469C419.128 60.1745 419.18 60.2861 419.267 60.3818C419.353 60.4775 419.469 60.5618 419.615 60.6348C419.889 60.7624 420.221 60.8444 420.613 60.8809C421.01 60.9128 421.393 60.9287 421.762 60.9287C422.135 60.9287 422.534 60.8991 422.958 60.8398C423.386 60.776 423.785 60.6963 424.154 60.6006C424.528 60.5049 424.87 60.4046 425.18 60.2998C425.494 60.1904 425.768 60.0879 426 59.9922L426.561 59.7598C426.706 59.696 426.839 59.6641 426.957 59.6641C427.271 59.6641 427.449 59.8304 427.49 60.1631C427.545 60.6143 427.039 61.1224 425.973 61.6875C424.546 62.4486 422.969 62.9453 421.242 63.1777C420.841 63.2324 420.358 63.2598 419.793 63.2598C419.232 63.2598 418.686 63.2233 418.152 63.1504C417.619 63.0775 417.177 62.9658 416.826 62.8154Z" fill="#FFD064"/>
<path d="M24.4141 35.0234C22.0052 35.8047 19.401 36.1953 16.6016 36.1953C6.83594 36.1953 1.95312 31.3451 1.95312 21.6445C1.95312 12.4648 6.83594 7.875 16.6016 7.875C19.401 7.875 22.0052 8.26562 24.4141 9.04688V12.1719C22.0052 11.2604 19.5312 10.8047 16.9922 10.8047C9.375 10.8047 5.56641 14.418 5.56641 21.6445C5.56641 29.3919 9.375 33.2656 16.9922 33.2656C19.5312 33.2656 22.0052 32.8099 24.4141 31.8984V35.0234ZM33.2227 21.957C33.2227 29.4961 36.6276 33.2656 43.4375 33.2656C50.1042 33.2656 53.4375 29.4961 53.4375 21.957C53.4375 14.5221 50.1042 10.8047 43.4375 10.8047C36.6276 10.8047 33.2227 14.5221 33.2227 21.957ZM29.4141 22.0742C29.4141 12.6081 34.0885 7.875 43.4375 7.875C52.6432 7.875 57.2461 12.6081 57.2461 22.0742C57.2461 31.4883 52.6432 36.1953 43.4375 36.1953C34.0885 36.1953 29.4141 31.4883 29.4141 22.0742ZM62.9297 36V8.07031H67.5195L77.7734 31.3711L87.832 8.07031H92.2266V36H89.0039V13.0898L79.082 36H76.2305L66.1523 13.0898V36H62.9297ZM103.066 8.07031V36H99.4531V8.07031H103.066ZM120.469 33.0703C127.305 33.0703 130.723 29.138 130.723 21.2734C130.723 14.4245 127.305 11 120.469 11H113.926V33.0703H120.469ZM110.312 36V8.07031H120.469C129.714 8.07031 134.336 12.4714 134.336 21.2734C134.336 31.0911 129.714 36 120.469 36H110.312ZM140.527 36H136.777L148.633 8.07031H152.637L164.551 36H160.547L156.934 27.2109H147.695L148.691 24.2812H155.723L150.508 11.625L140.527 36ZM167.969 35.0234V31.7031C170.898 32.7448 174.062 33.2656 177.461 33.2656C182.266 33.2656 184.668 31.5078 184.668 27.9922C184.668 24.9974 182.897 23.5 179.355 23.5H175.762C169.915 23.5 166.992 20.9609 166.992 15.8828C166.992 10.5443 170.736 7.875 178.223 7.875C181.478 7.875 184.505 8.26562 187.305 9.04688V12.3672C184.505 11.3255 181.478 10.8047 178.223 10.8047C173.145 10.8047 170.605 12.4974 170.605 15.8828C170.605 18.8776 172.324 20.375 175.762 20.375H179.355C185.306 20.375 188.281 22.9141 188.281 27.9922C188.281 33.4609 184.674 36.1953 177.461 36.1953C174.062 36.1953 170.898 35.8047 167.969 35.0234ZM211.699 8.07031V9.82812H195.41V20.9609H211.035V22.7188H195.41V36H193.359V8.07031H211.699ZM216.035 36H213.848L226.484 8.07031H228.926L241.621 36H239.18L235.039 26.625H222.52L223.125 24.8672H234.277L227.578 9.67188L216.035 36ZM247.48 8.07031V36H245.43V8.07031H247.48ZM266.641 8.07031L253.34 21.293L267.109 36H264.043L251.289 21.9766V20.7656L263.828 8.07031H266.641ZM289.16 8.07031V9.82812H272.871V20.9609H288.496V22.7188H272.871V34.2422H289.434V36H270.82V8.07031H289.16ZM313.262 8.07031V9.82812H303.691V36H301.641V9.82812H292.266V8.07031H313.262ZM319.629 8.07031V36H317.578V8.07031H319.629ZM319.707 0.648438H322.812L318.145 5.31641H316.504L319.707 0.648438ZM348.359 35.0234C345.82 35.8047 343.216 36.1953 340.547 36.1953C330.781 36.1953 325.898 31.3451 325.898 21.6445C325.898 12.4648 330.781 7.875 340.547 7.875C343.216 7.875 345.82 8.26562 348.359 9.04688V10.8047C345.82 10.0234 343.346 9.63281 340.938 9.63281C332.279 9.63281 327.949 13.6367 327.949 21.6445C327.949 30.1732 332.279 34.4375 340.938 34.4375C343.346 34.4375 345.82 34.0469 348.359 33.2656V35.0234ZM357.363 8.07031V36H355.312V8.07031H357.363ZM364.355 36H362.168L374.805 8.07031H377.246L389.941 36H387.5L383.359 26.625H370.84L371.445 24.8672H382.598L375.898 9.67188L364.355 36ZM393.555 35.0234V32.875C396.484 33.9167 399.714 34.4375 403.242 34.4375C409.089 34.4375 412.012 32.224 412.012 27.7969C412.012 24.5417 410.111 22.9141 406.309 22.9141H400.566C395.371 22.9141 392.773 20.5703 392.773 15.8828C392.773 10.5443 396.582 7.875 404.199 7.875C407.324 7.875 410.352 8.26562 413.281 9.04688V11C410.352 10.0885 407.324 9.63281 404.199 9.63281C397.949 9.63281 394.824 11.7161 394.824 15.8828C394.824 19.2682 396.738 20.9609 400.566 20.9609H406.309C411.478 20.9609 414.062 23.2396 414.062 27.7969C414.062 33.3958 410.456 36.1953 403.242 36.1953C399.714 36.1953 396.484 35.8047 393.555 35.0234Z" fill="#FFFBFB"/>
</svg>
