<svg width="25" height="25" viewBox="0 0 25 25" fill="none" xmlns="http://www.w3.org/2000/svg">
<path d="M0.0751092 23.203L8.1907 15.0874C6.93133 13.4593 6.25008 11.4687 6.25008 9.37496C6.25008 6.86872 7.2282 4.51873 8.99695 2.74686C10.7657 0.974996 13.1219 0 15.625 0C18.1282 0 20.4844 0.978121 22.2531 2.74686C24.025 4.51561 25 6.86872 25 9.37496C25 11.8781 24.0219 14.2343 22.2531 16.0031C20.4844 17.7749 18.1313 18.7499 15.625 18.7499C13.5313 18.7499 11.5438 18.0687 9.91569 16.8124L1.8001 24.9249C1.7763 24.9487 1.74805 24.9676 1.71695 24.9805C1.68585 24.9934 1.65252 25 1.61885 25C1.58519 25 1.55185 24.9934 1.52075 24.9805C1.48966 24.9676 1.4614 24.9487 1.4376 24.9249L0.0751092 23.5655C0.0512982 23.5417 0.0324089 23.5135 0.0195217 23.4824C0.00663444 23.4513 6.00777e-08 23.4179 6.00777e-08 23.3843C6.00777e-08 23.3506 0.00663444 23.3173 0.0195217 23.2862C0.0324089 23.2551 0.0512982 23.2268 0.0751092 23.203V23.203ZM10.6751 14.3249C12.0001 15.6468 13.7563 16.3749 15.625 16.3749C17.4938 16.3749 19.25 15.6468 20.575 14.3249C21.8969 12.9999 22.625 11.2437 22.625 9.37496C22.625 7.50622 21.8969 5.74685 20.575 4.42498C19.25 3.10311 17.4938 2.37499 15.625 2.37499C13.7563 2.37499 11.9969 3.09999 10.6751 4.42498C9.35319 5.74998 8.62507 7.50622 8.62507 9.37496C8.62507 11.2437 9.35319 13.0031 10.6751 14.3249Z" fill="#E32121"/>
</svg>
